<?xml version="1.0"?>
<svg xmlns="http://www.w3.org/2000/svg" viewBox="0 -26 512 512" width="512px" height="512px"><path d="m166 240c5.519531 0 10-4.480469 10-10s-4.480469-10-10-10-10 4.480469-10 10 4.480469 10 10 10zm0 0" fill="#076b11"/><path d="m50 460h412c27.570312 0 50-22.429688 50-50v-360c0-27.570312-22.429688-50-50-50h-412c-27.570312 0-50 22.429688-50 50v360c0 27.570312 22.429688 50 50 50zm442-410v360c0 16.542969-13.457031 30-30 30h-382v-420h382c16.542969 0 30 13.457031 30 30zm-472 0c0-16.542969 13.457031-30 30-30h10v420h-10c-16.542969 0-30-13.457031-30-30zm0 0" fill="#076b11"/><path d="m286 400c93.738281 0 170-76.261719 170-170s-76.261719-170-170-170-170 76.261719-170 170 76.261719 170 170 170zm0-320c82.710938 0 150 67.289062 150 150s-67.289062 150-150 150-150-67.289062-150-150 67.289062-150 150-150zm0 0" fill="#076b11"/><path d="m296.140625 349.988281c.914063 5.4375 6.058594 9.121094 11.519531 8.203125 61.582032-10.367187 108.339844-64.078125 108.339844-128.191406 0-5.523438-4.476562-10-10-10s-10 4.476562-10 10c0 53.910156-38.546875 99.527344-91.660156 108.46875-5.445313.917969-9.117188 6.074219-8.199219 11.519531zm0 0" fill="#076b11"/><path d="m169.363281 199.992188c5.234375 1.824218 10.925781-.953126 12.738281-6.148438 15.414063-44.167969 57.167969-73.84375 103.898438-73.84375 5.523438 0 10-4.476562 10-10s-4.476562-10-10-10c-55.226562 0-104.566406 35.066406-122.78125 87.253906-1.820312 5.214844.933594 10.917969 6.144531 12.738282zm0 0" fill="#076b11"/><path d="m216 230c0 38.597656 31.402344 70 70 70s70-31.402344 70-70-31.402344-70-70-70-70 31.402344-70 70zm120 0c0 27.570312-22.429688 50-50 50s-50-22.429688-50-50 22.429688-50 50-50 50 22.429688 50 50zm0 0" fill="#076b11"/><path d="m256 230c0 16.542969 13.457031 30 30 30s30-13.457031 30-30-13.457031-30-30-30-30 13.457031-30 30zm40 0c0 5.515625-4.484375 10-10 10s-10-4.484375-10-10 4.484375-10 10-10 10 4.484375 10 10zm0 0" fill="#076b11"/></svg>
