<?xml version="1.0" encoding="iso-8859-1"?>
<!-- Generator: Adobe Illustrator 19.0.0, SVG Export Plug-In . SVG Version: 6.00 Build 0)  -->
<svg xmlns="http://www.w3.org/2000/svg" xmlns:xlink="http://www.w3.org/1999/xlink" version="1.1" id="Capa_1" x="0px" y="0px" viewBox="0 0 511.998 511.998" style="enable-background:new 0 0 511.998 511.998;" xml:space="preserve" width="512px" height="512px">
<g>
	<g>
		<path d="M326.982,185.996l-12.665-16.884c16.989-14.586,20.838-39.964,8.104-59.076c-11.882-17.805-33.892-24.152-52.553-17.449    c1.513-17.649-12.451-32.581-29.879-32.581c-16.541,0-29.998,13.457-29.998,29.998c0,12.784,8.042,23.72,19.33,28.03    L200.724,137.1c-38.153-38.153-35.19-35.248-36.626-36.473c9.858-10.694,15.893-24.965,15.893-40.622    c0-33.082-26.914-59.997-59.997-59.997c-33.082,0-59.997,26.914-59.997,59.997c0,24.144,14.342,44.987,34.948,54.497    c-4.582,8.909-6.058,19.009-4.148,28.946c0.022,0.115,0.044,0.23,0.067,0.345l27.664,140.281l-22.866,68.61l-82.481,82.481    c-17.543,17.543-17.543,46.088,0,63.631c17.588,17.589,46.041,17.591,63.631,0l85.117-85.117l-10.599,42.39    c-6.009,24.079,8.68,48.558,32.719,54.562c23.97,6.029,48.508-8.443,54.595-32.733l30-120.003    c3.801-15.247-0.737-31.618-11.841-42.723l-50.311-50.326l-4.866-25.342c6.532-0.968,12.771-3.365,18.321-7.071l69.576-46.384    l13.458,17.944c4.971,6.628,14.371,7.97,20.999,3C330.609,202.024,331.953,192.622,326.982,185.996z M89.996,60.007    c0-16.541,13.457-29.998,29.998-29.998c16.541,0,29.998,13.457,29.998,29.998s-13.457,29.998-29.998,29.998    C103.453,90.005,89.996,76.548,89.996,60.007z M149.233,381.709c-0.742,2.212-2,4.247-3.637,5.884l-89.995,89.995    c-5.865,5.865-15.341,5.866-21.208,0c-5.847-5.847-5.847-15.361,0-21.208l84.985-84.985c1.647-1.646,2.888-3.654,3.624-5.864    l14.221-42.672l24.016,24.016C160.032,348.864,160.709,347.281,149.233,381.709z M235.592,336.386    c3.704,3.704,5.216,9.167,3.95,14.246l-29.996,119.986c-2.035,8.122-10.222,12.922-18.201,10.918    c-8.018-2.003-12.911-10.167-10.908-18.194l25.882-103.515c1.278-5.112-0.219-10.519-3.945-14.244l-47.985-47.985    c-2.103-2.103-3.521-4.749-4.093-7.62l-18.7-94.743l31.579,31.579c2.018,2.018,4.199,3.813,6.505,5.39l8.223,42.825    c0.566,2.946,2.002,5.655,4.123,7.776L235.592,336.386z M293.304,147.481l-90.003,60.003c-5.77,3.851-13.715,3.319-18.916-1.881    l-59.997-59.997c-5.152-5.152-6.011-13.545-1.294-19.707c0.094-0.123,0.178-0.253,0.275-0.373    c0.317-0.389,0.657-0.766,1.019-1.128c5.761-5.76,15.282-5.925,21.208,0l42.61,42.61c5.057,5.058,12.978,5.841,18.927,1.874    l69.556-46.375c6.887-4.61,16.173-2.719,20.773,4.173C302.056,133.573,300.206,142.883,293.304,147.481z" fill="#077507"/>
	</g>
</g>
<g>
	<g>
		<path d="M507.579,214.391l-29.998-29.998c-9.404-9.407-25.605-2.749-25.605,10.605v74.996c-16.541,0-29.998,13.457-29.998,29.998    c0,16.541,13.457,29.998,29.998,29.998c16.541,0,29.998-13.457,29.998-29.998v-68.783l4.394,4.393    c5.857,5.858,15.354,5.858,21.212,0C513.437,229.745,513.437,220.249,507.579,214.391z" fill="#077507"/>
	</g>
</g>
<g>
	<g>
		<path d="M447.582,34.401L417.584,4.403c-9.406-9.407-25.605-2.748-25.605,10.605v74.996c-16.541,0-29.998,13.457-29.998,29.998    s13.457,29.998,29.998,29.998c16.541,0,29.998-13.457,29.998-29.998V51.221l4.393,4.392c5.857,5.858,15.354,5.858,21.212,0    S453.44,40.259,447.582,34.401z" fill="#077507"/>
	</g>
</g>
<g>
</g>
<g>
</g>
<g>
</g>
<g>
</g>
<g>
</g>
<g>
</g>
<g>
</g>
<g>
</g>
<g>
</g>
<g>
</g>
<g>
</g>
<g>
</g>
<g>
</g>
<g>
</g>
<g>
</g>
</svg>
