<?xml version="1.0" encoding="iso-8859-1"?>
<!-- Generator: Adobe Illustrator 18.0.0, SVG Export Plug-In . SVG Version: 6.00 Build 0)  -->
<!DOCTYPE svg PUBLIC "-//W3C//DTD SVG 1.1//EN" "http://www.w3.org/Graphics/SVG/1.1/DTD/svg11.dtd">
<svg xmlns="http://www.w3.org/2000/svg" xmlns:xlink="http://www.w3.org/1999/xlink" version="1.1" id="Capa_1" x="0px" y="0px" viewBox="0 0 53.67 53.67" style="enable-background:new 0 0 53.67 53.67;" xml:space="preserve" width="512px" height="512px">
<path id="XMLID_267_" d="M6.086,38.781v4.279c0,0.499-0.404,0.903-0.903,0.903H0.903C0.404,43.964,0,43.559,0,43.06v-4.279  c0-0.499,0.404-0.903,0.903-0.903h4.279C5.681,37.878,6.086,38.282,6.086,38.781z M5.182,30.835H0.903  C0.404,30.835,0,31.239,0,31.738v4.279c0,0.499,0.404,0.903,0.903,0.903h4.279c0.499,0,0.903-0.404,0.903-0.903v-4.279  C6.086,31.239,5.681,30.835,5.182,30.835z M5.182,23.792H0.903C0.404,23.792,0,24.197,0,24.696v4.279  c0,0.499,0.404,0.903,0.903,0.903h4.279c0.499,0,0.903-0.404,0.903-0.903v-4.279C6.086,24.197,5.681,23.792,5.182,23.792z   M5.182,16.75H0.903C0.404,16.75,0,17.154,0,17.653v4.279c0,0.499,0.404,0.903,0.903,0.903h4.279c0.499,0,0.903-0.404,0.903-0.903  v-4.279C6.086,17.154,5.681,16.75,5.182,16.75z M5.182,9.707H0.903C0.404,9.707,0,10.111,0,10.61v4.279  c0,0.499,0.404,0.903,0.903,0.903h4.279c0.499,0,0.903-0.404,0.903-0.903V10.61C6.086,10.111,5.681,9.707,5.182,9.707z   M14.699,37.878H10.42c-0.499,0-0.903,0.404-0.903,0.903v4.279c0,0.499,0.404,0.903,0.903,0.903h4.279  c0.499,0,0.903-0.404,0.903-0.903v-4.279C15.603,38.282,15.198,37.878,14.699,37.878z M14.699,30.835H10.42  c-0.499,0-0.903,0.404-0.903,0.903v4.279c0,0.499,0.404,0.903,0.903,0.903h4.279c0.499,0,0.903-0.404,0.903-0.903v-4.279  C15.603,31.239,15.198,30.835,14.699,30.835z M14.699,23.792H10.42c-0.499,0-0.903,0.404-0.903,0.903v4.279  c0,0.499,0.404,0.903,0.903,0.903h4.279c0.499,0,0.903-0.404,0.903-0.903v-4.279C15.603,24.197,15.198,23.792,14.699,23.792z   M14.699,16.75H10.42c-0.499,0-0.903,0.404-0.903,0.903v4.279c0,0.499,0.404,0.903,0.903,0.903h4.279  c0.499,0,0.903-0.404,0.903-0.903v-4.279C15.603,17.154,15.198,16.75,14.699,16.75z M24.216,37.878h-4.279  c-0.499,0-0.903,0.404-0.903,0.903v4.279c0,0.499,0.404,0.903,0.903,0.903h4.279c0.499,0,0.903-0.404,0.903-0.903v-4.279  C25.12,38.282,24.715,37.878,24.216,37.878z M24.216,30.835h-4.279c-0.499,0-0.903,0.404-0.903,0.903v4.279  c0,0.499,0.404,0.903,0.903,0.903h4.279c0.499,0,0.903-0.404,0.903-0.903v-4.279C25.12,31.239,24.715,30.835,24.216,30.835z   M33.733,37.878h-4.279c-0.499,0-0.903,0.404-0.903,0.903v4.279c0,0.499,0.404,0.903,0.903,0.903h4.279  c0.499,0,0.903-0.404,0.903-0.903v-4.279C34.637,38.282,34.232,37.878,33.733,37.878z M33.733,30.835h-4.279  c-0.499,0-0.903,0.404-0.903,0.903v4.279c0,0.499,0.404,0.903,0.903,0.903h4.279c0.499,0,0.903-0.404,0.903-0.903v-4.279  C34.637,31.239,34.232,30.835,33.733,30.835z M33.733,23.792h-4.279c-0.499,0-0.903,0.404-0.903,0.903v4.279  c0,0.499,0.404,0.903,0.903,0.903h4.279c0.499,0,0.903-0.404,0.903-0.903v-4.279C34.637,24.197,34.232,23.792,33.733,23.792z   M43.25,37.878h-4.279c-0.499,0-0.903,0.404-0.903,0.903v4.279c0,0.499,0.404,0.903,0.903,0.903h4.279  c0.499,0,0.903-0.404,0.903-0.903v-4.279C44.154,38.282,43.749,37.878,43.25,37.878z M43.25,30.835h-4.279  c-0.499,0-0.903,0.404-0.903,0.903v4.279c0,0.499,0.404,0.903,0.903,0.903h4.279c0.499,0,0.903-0.404,0.903-0.903v-4.279  C44.154,31.239,43.749,30.835,43.25,30.835z M43.25,23.792h-4.279c-0.499,0-0.903,0.404-0.903,0.903v4.279  c0,0.499,0.404,0.903,0.903,0.903h4.279c0.499,0,0.903-0.404,0.903-0.903v-4.279C44.154,24.197,43.749,23.792,43.25,23.792z   M43.25,16.75h-4.279c-0.499,0-0.903,0.404-0.903,0.903v4.279c0,0.499,0.404,0.903,0.903,0.903h4.279  c0.499,0,0.903-0.404,0.903-0.903v-4.279C44.154,17.154,43.749,16.75,43.25,16.75z M43.25,9.707h-4.279  c-0.499,0-0.903,0.404-0.903,0.903v4.279c0,0.499,0.404,0.903,0.903,0.903h4.279c0.499,0,0.903-0.404,0.903-0.903V10.61  C44.154,10.111,43.749,9.707,43.25,9.707z M52.767,37.878h-4.279c-0.499,0-0.903,0.404-0.903,0.903v4.279  c0,0.499,0.404,0.903,0.903,0.903h4.279c0.499,0,0.903-0.404,0.903-0.903v-4.279C53.67,38.282,53.266,37.878,52.767,37.878z   M52.767,30.835h-4.279c-0.499,0-0.903,0.404-0.903,0.903v4.279c0,0.499,0.404,0.903,0.903,0.903h4.279  c0.499,0,0.903-0.404,0.903-0.903v-4.279C53.67,31.239,53.266,30.835,52.767,30.835z" fill="#0c6b0f"/>
<g>
</g>
<g>
</g>
<g>
</g>
<g>
</g>
<g>
</g>
<g>
</g>
<g>
</g>
<g>
</g>
<g>
</g>
<g>
</g>
<g>
</g>
<g>
</g>
<g>
</g>
<g>
</g>
<g>
</g>
</svg>
